ply
format ascii 1.0
comment Generated by the CGAL library
element vertex 27
property double x
property double y
property double z
element face 0
property list uchar int vertex_indices
end_header
0.008178 -0.049651 0.014658
0.008438 -0.049669 0.014241
0.00872 -0.049658 0.014413
0.008701 -0.049639 0.013817
0.008984 -0.049644 0.013991
0.009251 -0.049621 0.013557
0.00953 -0.049633 0.013735
0.009704 -0.049603 0.01346
0.009968 -0.049495 0.013666
0.010223 -0.049329 0.013252
0.010471 -0.049148 0.013492
0.010463 -0.049116 0.012866
0.0107 -0.048918 0.01312
0.010595 -0.04896 0.012656
0.010886 -0.048675 0.012825
0.010862 -0.048693 0.012226
0.011145 -0.048438 0.012405
0.011393 -0.048473 0.012005
0.011668 -0.048193 0.012199
0.011831 -0.048294 0.011934
0.012121 -0.048229 0.012098
0.012368 -0.048392 0.011696
0.012645 -0.048413 0.011882
0.012893 -0.048585 0.011478
0.012924 -0.048448 0.012067
0.013166 -0.048641 0.011672
0.013344 -0.048606 0.012013
