ply
format ascii 1.0
comment Generated by the CGAL library
element vertex 55
property double x
property double y
property double z
element face 105
property list uchar int vertex_indices
end_header
0 0 0
1 0 0
1 2 0
2 2 0
3 3 0
3 4 0
2 5 0
0 5 0
1 3 0
1.5 3 0
2 3.5 0
1.5 4 0
1 4 0
0 0 1
1 0 1
1 2 1
2 2 1
3 3 1
3 4 1
2 5 1
0 5 1
1 3 1
1.5 3 1
2 3.5 1
1.5 4 1
1 4 1
0 0 0
1 0 0
1 2 0
2 2 0
3 3 0
3 4 0
2 5 0
0 5 0
1 3 0
1.5 3 0
2 3.5 0
1.5 4 0
1 4 0
0 0 1
1 0 1
1 2 1
2 2 1
3 3 1
3 4 1
2 5 1
0 5 1
1 3 1
1.5 3 1
2 3.5 1
1.5 4 1
1 4 1
0 1 0
0 0 0
1 1 0
3 8 7 12
3 2 8 9
3 3 9 10
3 10 5 4
3 5 10 11
3 12 7 6
3 15 13 14
3 21 15 16
3 22 16 17
3 17 18 23
3 23 18 19
3 20 25 24
3 13 0 1
3 14 1 2
3 15 2 3
3 16 3 4
3 17 4 5
3 18 5 6
3 19 6 7
3 20 7 0
3 21 8 12
3 25 12 11
3 24 11 10
3 23 10 9
3 22 9 8
3 34 33 38
3 28 34 35
3 29 35 36
3 36 31 30
3 31 36 37
3 38 33 32
3 41 39 40
3 47 41 42
3 48 42 43
3 43 44 49
3 49 44 45
3 46 51 50
3 39 26 27
3 40 27 28
3 41 28 29
3 42 29 30
3 43 30 31
3 44 31 32
3 45 32 33
3 46 33 26
3 47 34 38
3 51 38 37
3 50 37 36
3 49 36 35
3 48 35 34
3 2 1 0
3 8 2 0
3 8 0 7
3 9 3 2
3 10 4 3
3 11 6 5
3 6 11 12
3 21 25 20
3 15 21 20
3 15 20 13
3 16 22 21
3 17 23 22
3 19 24 23
3 24 19 20
3 1 14 13
3 2 15 14
3 3 16 15
3 4 17 16
3 5 18 17
3 6 19 18
3 7 20 19
3 0 13 20
3 12 25 21
3 11 24 25
3 10 23 24
3 9 22 23
3 8 21 22
3 28 27 26
3 34 28 26
3 34 26 33
3 35 29 28
3 36 30 29
3 37 32 31
3 32 37 38
3 47 51 46
3 41 47 46
3 41 46 39
3 42 48 47
3 43 49 48
3 45 50 49
3 50 45 46
3 27 40 39
3 28 41 40
3 29 42 41
3 30 43 42
3 31 44 43
3 32 45 44
3 33 46 45
3 26 39 46
3 38 51 47
3 37 50 51
3 36 49 50
3 35 48 49
3 34 47 48
3 52 53 54
